<svg width="790" height="724" viewBox="0 0 790 724" fill="none" xmlns="http://www.w3.org/2000/svg">
<path d="M227.954 177.881H238.858L264.812 97.1867H254.383L233.524 164.946L212.666 97.1867H202L227.954 177.881Z" fill="black"/>
<path d="M292.024 179.068C310.63 179.068 321.059 164.946 321.059 137.534C321.059 110.122 310.63 96 292.024 96C273.417 96 262.988 110.122 262.988 137.534C262.988 164.946 273.417 179.068 292.024 179.068ZM292.024 170.168C279.58 170.168 273.18 158.776 273.18 137.534C273.18 116.292 279.58 104.9 292.024 104.9C304.467 104.9 310.867 116.292 310.867 137.534C310.867 158.776 304.467 170.168 292.024 170.168Z" fill="black"/>
<path d="M326.939 177.881H374.344V168.625H355.619V106.443H374.344V97.1867H326.939V106.443H345.664V168.625H326.939V177.881Z" fill="black"/>
<path d="M410.799 170.168C397.289 170.168 390.297 157.114 390.297 137.534C390.297 117.954 397.289 104.9 410.799 104.9C421.821 104.9 427.154 113.088 429.643 123.768L439.242 122.226C436.635 105.849 426.325 96 410.799 96C391.6 96 380.223 111.308 380.223 137.534C380.223 163.76 391.6 179.068 410.799 179.068C426.325 179.068 436.517 169.456 439.479 152.842L429.88 151.299C427.51 162.336 421.821 170.168 410.799 170.168Z" fill="black"/>
<path d="M442.989 177.881H493.594V168.388H453.181V141.687H491.342V132.431H453.181V106.68H493.949V97.1867H442.989V177.881Z" fill="black"/>
<path d="M233.406 327.379C252.012 327.379 262.442 313.257 262.442 285.845C262.442 258.432 252.012 244.311 233.406 244.311C214.799 244.311 204.37 258.432 204.37 285.845C204.37 313.257 214.799 327.379 233.406 327.379ZM233.406 318.478C220.962 318.478 214.562 307.086 214.562 285.845C214.562 264.603 220.962 253.211 233.406 253.211C245.85 253.211 252.249 264.603 252.249 285.845C252.249 307.086 245.85 318.478 233.406 318.478Z" fill="black"/>
<path d="M267.136 326.192H277.328V291.659H315.489V282.403H277.328V254.991H318.096V245.497H267.136V326.192Z" fill="black"/>
<path d="M204.37 403.302H228.31V474.503H238.502V403.302H262.442V393.808H204.37V403.302Z" fill="black"/>
<path d="M298.423 393.808H285.387L260.618 474.503H270.928L277.328 452.43H306.482L312.882 474.503H323.429L298.423 393.808ZM279.817 443.411L291.786 402.115L303.756 443.411H279.817Z" fill="black"/>
<path d="M325.753 474.503H335.946V443.768H353.011L369.603 474.503H380.862L363.559 442.343C373.159 439.021 378.136 430.714 378.136 418.61C378.136 401.759 369.603 393.808 354.197 393.808H325.753V474.503ZM335.946 434.393V403.183H353.367C362.729 403.183 368.063 406.743 368.063 418.728C368.063 428.697 363.678 434.393 353.367 434.393H335.946Z" fill="black"/>
<path d="M415.658 393.808H402.622L377.853 474.503H388.163L394.563 452.43H423.717L430.117 474.503H440.665L415.658 393.808ZM397.052 443.411L409.022 402.115L420.991 443.411H397.052Z" fill="black"/>
<path d="M440.026 453.142C442.752 468.688 452.588 475.689 468.587 475.689C483.994 475.689 495.727 468.095 495.727 453.142C495.727 441.038 490.275 434.155 477.594 431.189L464.914 428.222C456.025 426.205 452.944 422.17 452.944 415.287C452.944 407.455 458.158 401.403 468.113 401.403C478.898 401.403 483.876 407.811 485.535 415.999L495.134 414.456C492.883 401.047 484.113 392.621 468.35 392.621C453.536 392.621 442.989 401.759 442.989 415.762C442.989 429.053 450.336 434.867 462.069 437.597L474.987 440.563C483.046 442.462 485.772 446.26 485.772 453.498C485.772 462.042 479.017 466.908 468.824 466.908C457.447 466.908 452.114 461.449 449.862 451.481L440.026 453.142Z" fill="black"/>
<path d="M205.555 601.453C208.281 616.999 218.118 624 234.117 624C249.524 624 261.256 616.405 261.256 601.453C261.256 589.349 255.805 582.466 243.124 579.499L230.443 576.533C221.555 574.515 218.473 570.481 218.473 563.598C218.473 555.766 223.688 549.714 233.643 549.714C244.428 549.714 249.405 556.122 251.064 564.31L260.664 562.767C258.412 549.358 249.642 540.932 233.88 540.932C219.066 540.932 208.518 550.07 208.518 564.073C208.518 577.363 215.866 583.178 227.599 585.908L240.517 588.874C248.576 590.773 251.301 594.57 251.301 601.809C251.301 610.353 244.546 615.219 234.354 615.219C222.977 615.219 217.644 609.76 215.392 599.792L205.555 601.453Z" fill="black"/>
<path d="M267.136 622.813H277.328V586.857H306.719V622.813H316.911V542.119H306.719V577.363H277.328V542.119H267.136V622.813Z" fill="black"/>
<path d="M325.753 622.813H376.358V613.32H335.946V586.619H374.107V577.363H335.946V551.612H376.714V542.119H325.753V622.813Z" fill="black"/>
<path d="M403.807 622.813H414.71L440.665 542.119H430.236L409.377 609.879L388.519 542.119H377.853L403.807 622.813Z" fill="black"/>
<path d="M469.417 615.1C455.907 615.1 448.914 602.046 448.914 582.466C448.914 562.886 455.907 549.832 469.417 549.832C480.439 549.832 485.772 558.02 488.261 568.701L497.86 567.158C495.253 550.782 484.942 540.932 469.417 540.932C450.218 540.932 438.841 556.24 438.841 582.466C438.841 608.692 450.218 624 469.417 624C484.942 624 495.134 614.388 498.097 597.774L488.498 596.232C486.127 607.268 480.439 615.1 469.417 615.1Z" fill="black"/>
<path d="M501.606 622.813H511.798V586.857H541.19V622.813H551.382V542.119H541.19V577.363H511.798V542.119H501.606V622.813Z" fill="black"/>
<path d="M560.224 622.813H610.829V613.32H570.416V586.619H608.577V577.363H570.416V551.612H611.184V542.119H560.224V622.813Z" fill="black"/>
<path d="M668.617 622.813V542.119H659.254V608.454L631.167 542.119H618.841V622.813H628.322V556.596L656.292 622.813H668.617Z" fill="black"/>
<path d="M677.459 622.813H687.651V586.619H699.265L722.138 622.813H733.753L707.68 581.517L732.805 542.119H721.783L699.621 577.363H687.651V542.119H677.459V622.813Z" fill="black"/>
<path d="M760.964 624C779.571 624 790 609.878 790 582.466C790 555.054 779.571 540.932 760.964 540.932C742.358 540.932 731.929 555.054 731.929 582.466C731.929 609.878 742.358 624 760.964 624ZM760.964 615.1C748.521 615.1 742.121 603.708 742.121 582.466C742.121 561.224 748.521 549.832 760.964 549.832C773.408 549.832 779.808 561.224 779.808 582.466C779.808 603.708 773.408 615.1 760.964 615.1Z" fill="black"/>
<path d="M287.906 65.8182L179.942 65.8182L179.942 9.43859e-06L287.906 0L287.906 65.8182ZM179.942 329.091L107.965 329.091L107.965 65.8182L179.942 65.8182L179.942 329.091ZM2.66082e-05 329.091L107.965 329.091L107.965 394.909L3.23622e-05 394.909L2.66082e-05 329.091ZM107.965 658.182L107.965 394.909L179.942 394.909L179.942 658.182L107.965 658.182ZM287.907 724L179.942 724L179.942 658.182L287.907 658.182L287.907 724Z" fill="#76FF03"/>
</svg>
